<svg t="1776461020016" class="icon" viewBox="0 0 1024 1024" version="1.1" xmlns="http://www.w3.org/2000/svg" p-id="5900"
     width="200" height="200">
    <path d="M107.49 187.87H503.9v596.84H107.49z" fill="#279ACC" p-id="5901"></path>
    <path d="M906.41 741.8h-747.8V130.42h747.8z m-690.12-57.68h632.44v-496H216.29z" fill="#303030" p-id="5902"></path>
    <path d="M532.51 885.65a28.84 28.84 0 0 1-28.84-28.84v-144.2a28.84 28.84 0 0 1 57.68 0v144.2a28.84 28.84 0 0 1-28.84 28.84z"
          fill="#303030" p-id="5903"></path>
    <path d="M760.69 895.64H299.25a28.84 28.84 0 0 1 0-57.68h461.44a28.84 28.84 0 0 1 0 57.68zM624.9 367.59H305.7a28.84 28.84 0 1 1 0-57.68h319.2a28.84 28.84 0 1 1 0 57.68zM751.92 576.08H305.7a28.84 28.84 0 1 1 0-57.68h446.22a28.84 28.84 0 0 1 0 57.68z"
          fill="#303030" p-id="5904"></path>
    <path d="M564.74 546.38m-81.31 0a81.31 81.31 0 1 0 162.62 0 81.31 81.31 0 1 0-162.62 0Z" fill="#279ACC"
          p-id="5905"></path>
    <path d="M564.74 639.34a93 93 0 1 1 93-93 93.05 93.05 0 0 1-93 93z m0-128.24A35.28 35.28 0 1 0 600 546.39a35.33 35.33 0 0 0-35.26-35.29z"
          fill="#303030" p-id="5906"></path>
    <path d="M687.8 337.88m-81.31 0a81.31 81.31 0 1 0 162.62 0 81.31 81.31 0 1 0-162.62 0Z" fill="#279ACC"
          p-id="5907"></path>
    <path d="M687.8 430.85a93 93 0 1 1 93-93 93.08 93.08 0 0 1-93 93z m0-128.25a35.28 35.28 0 1 0 35.28 35.28 35.32 35.32 0 0 0-35.28-35.28z"
          fill="#303030" p-id="5908"></path>
</svg>
